<svg width="18" height="37" viewBox="0 0 18 37" fill="none" xmlns="http://www.w3.org/2000/svg">
<path d="M0.790039 17.1435C0.790039 14.7484 2.71078 12.8069 5.08014 12.8069H12.9453C15.3147 12.8069 17.2354 14.7484 17.2354 17.1435V27.9851H0.790039V17.1435Z" fill="#CFCFCF"/>
<path d="M4.12678 26.4191C4.12678 25.4212 4.92709 24.6122 5.91432 24.6122C6.90156 24.6122 7.70187 25.4212 7.70187 26.4191V34.3697C7.70187 35.3676 6.90156 36.1766 5.91432 36.1766C4.92709 36.1766 4.12678 35.3676 4.12678 34.3697V26.4191Z" fill="#CFCFCF"/>
<path d="M10.5619 26.4191C10.5619 25.4212 11.3622 24.6122 12.3495 24.6122C13.3367 24.6122 14.137 25.4212 14.137 26.4191V34.3697C14.137 35.3676 13.3367 36.1766 12.3495 36.1766C11.3622 36.1766 10.5619 35.3676 10.5619 34.3697V26.4191Z" fill="#CFCFCF"/>
<path d="M14.6388 6.31526C14.6388 9.42244 12.1199 11.9413 9.01273 11.9413C5.90555 11.9413 3.38668 9.42244 3.38668 6.31526C3.38668 3.20808 5.90555 0.689209 9.01273 0.689209C12.1199 0.689209 14.6388 3.20808 14.6388 6.31526Z" fill="#CFCFCF"/>
</svg>
